<svg width="28" height="36" viewBox="0 0 28 36" fill="none" xmlns="http://www.w3.org/2000/svg">
<path d="M13.7504 1.25C11.1812 1.24992 8.67437 2.04151 6.57113 3.51702C4.46789 4.99254 2.87039 7.0803 1.99608 9.49615C1.12176 11.912 1.01309 14.5386 1.68486 17.0184C2.35663 19.4982 3.77621 21.7108 5.75038 23.355C7.40038 24.7317 8.75038 26.6 8.75038 28.75H18.7504C18.7504 26.6 20.1004 24.7317 21.7504 23.3533C23.7239 21.709 25.1429 19.4965 25.8143 17.017C26.4857 14.5375 26.3768 11.9113 25.5026 9.49586C24.6283 7.08041 23.0311 4.99294 20.9283 3.51751C18.8255 2.04208 16.3192 1.25033 13.7504 1.25Z" stroke="black" stroke-width="2.5"/>
<path d="M18.7504 28.75H8.75037V32.0833C8.75037 32.7464 9.01376 33.3823 9.4826 33.8511C9.95144 34.3199 10.5873 34.5833 11.2504 34.5833H16.2504C16.9134 34.5833 17.5493 34.3199 18.0181 33.8511C18.487 33.3823 18.7504 32.7464 18.7504 32.0833V28.75Z" stroke="black" stroke-width="2.5" stroke-linejoin="round"/>
<path d="M10.4171 11.25C10.4171 9.56166 11.9087 7.91666 13.7504 7.91666C15.5921 7.91666 17.0837 9.28332 17.0837 10.9717C17.0837 11.58 16.8904 12.1467 16.5554 12.6233C15.5587 14.0433 13.7504 15.3967 13.7504 17.0833" stroke="black" stroke-width="2.5" stroke-linecap="round"/>
<path d="M13.7371 21.25H13.7502" stroke="black" stroke-width="2.5" stroke-linecap="round" stroke-linejoin="round"/>
</svg>
